<svg width="10" height="21" viewBox="0 0 10 21" fill="none" xmlns="http://www.w3.org/2000/svg">
<path d="M6.41669 2.74997V12.4116C7.11571 12.8152 7.66204 13.4382 7.97092 14.1839C8.2798 14.9296 8.334 15.7564 8.12509 16.5361C7.91617 17.3157 7.45585 18.0047 6.81548 18.4961C6.17513 18.9874 5.39052 19.2537 4.58336 19.2537C3.77619 19.2537 2.99159 18.9874 2.35124 18.4961C1.71087 18.0047 1.25054 17.3157 1.04163 16.5361C0.832713 15.7564 0.886918 14.9296 1.1958 14.1839C1.50468 13.4382 2.05101 12.8152 2.75003 12.4116V2.74997C2.75003 2.26374 2.94317 1.79742 3.287 1.4536C3.63081 1.10979 4.09712 0.916626 4.58336 0.916626C5.06959 0.916626 5.53591 1.10979 5.87972 1.4536C6.22354 1.79742 6.41669 2.26374 6.41669 2.74997Z" stroke="#FF6900" stroke-width="1.83333" stroke-linecap="round" stroke-linejoin="round"/>
</svg>
